<svg xmlns="http://www.w3.org/2000/svg" data-name="Layer 1" viewBox="0 0 100 125" x="0px" y="0px" fill="#E0E0E0"><title>56 all</title><path d="M91.9,46.36a42,42,0,1,0-71,33.13,26.28,26.28,0,0,1-5.39,6.31,4,4,0,0,0,2.59,7h.66c4.83,0,11.83-1.05,17.12-4a42,42,0,0,0,56-42.4ZM56.7,86.61a38,38,0,0,1-20.3-1.92l-.93-.36-.85.53c-4.55,2.85-11.54,4-16.43,3.92a31.09,31.09,0,0,0,7-8.65L26,78.72l-1.23-1.09A37.82,37.82,0,0,1,12.08,51.72a38,38,0,0,1,75.83-5.08A38.34,38.34,0,0,1,56.7,86.61Z"/><polygon points="51.8 36.6 47.8 36.6 47.8 47.6 36.8 47.6 36.8 51.6 47.8 51.6 47.8 62.6 51.8 62.6 51.8 51.6 62.8 51.6 62.8 47.6 51.8 47.6 51.8 36.6"/></svg>